# xmcd
#
# Track frame offsets:
#	150
#	13950
#	37235
#	52807
#
# Disc length: 770 seconds
#
# Revision: 0
# Processed by: cddbd v1.5.2PL0 Copyright (c) Steve Scherf et al.
# Submitted via: audiograbber 1.83.01
#
DISCID=2f030004
DTITLE=Blue Lagoon - Break my stride (Maxi)
DYEAR=2004
DGENRE=Pop
TTITLE0=Break my stride (Radio Edit)
TTITLE1=Break my stride (Extended Version)
TTITLE2=Love is the key
TTITLE3=Break my stride (A Cappela reprise)
EXTD=
EXTT0=
EXTT1=
EXTT2=
EXTT3=
PLAYORDER=
